<?xml version="1.0" encoding="UTF-8"?><svg id="_圖層_2" xmlns="http://www.w3.org/2000/svg" viewBox="0 0 838.33 156.61"><path d="m323.07,71.84c-.92,1.13-1.74,2.7-2.46,4.69-.39,1.07-.77,1.61-1.14,1.61-.2,0-.65-.08-1.38-.23-9.38-2.52-16.79-6.01-22.24-10.46-4.82,4.2-12.05,7.71-21.68,10.52-.72.2-1.18.29-1.38.29-.29,0-.52-.13-.67-.38-.1-.14-.27-.51-.53-1.11-.61-1.39-1.5-2.71-2.7-3.98,9.36-1.99,16.84-5.19,22.44-9.58-2.7-2.99-5.23-6.67-7.62-11.04-.1-.19-.15-.34-.15-.44,0-.19.22-.41.67-.64l3.84-1.93c.27-.12.47-.18.59-.18.16,0,.32.16.5.47,1.82,3.65,4.02,6.86,6.62,9.61,1.58-1.83,2.88-3.61,3.9-5.33,1-1.64,1.84-3.38,2.52-5.21.94.39,1.98.86,3.13,1.41,1.21.61,1.92.96,2.14,1.05.6.33.91.69.91,1.08s-.24.77-.73,1.2c-.55.45-1.28,1.35-2.2,2.7-2.07,3.01-3.84,5.36-5.3,7.06,5.53,4.12,13.16,7.07,22.91,8.85Zm-53.7-21.18c4.79-2.58,8.81-5.8,12.07-9.67.92-1.05,1.68-2.27,2.29-3.66,2.17,1.02,3.75,1.88,4.75,2.58.72.51,1.08.91,1.08,1.2s-.26.62-.79.97c-.63.37-1.32,1.08-2.08,2.14-3.11,3.85-6.97,7.29-11.6,10.31-.72.49-1.2.73-1.44.73s-.58-.34-1.03-1.03c-1.13-1.68-2.22-2.87-3.25-3.57Zm8.7-14.41l-7.62.12c-.43,0-.64-.19-.64-.59v-4.86c0-.31.04-.5.12-.56.06-.04.23-.06.53-.06l7.62.06h14.36v-1.08c0-2.34-.15-4.18-.44-5.51,1.89,0,4.03.1,6.42.29.6.06.91.25.91.59,0,.2-.12.58-.35,1.14-.16.49-.23,1.67-.23,3.54v1.03h15.06l7.62-.06c.33,0,.53.03.59.09s.09.23.09.53v4.86c0,.39-.22.59-.67.59l-7.62-.12h-35.71Zm44.3,13.21c-1.43,1.5-2.43,2.78-3.02,3.84-.51.92-.93,1.38-1.26,1.38-.22,0-.69-.19-1.44-.59-5.9-3.4-10.74-7.74-14.53-13.04-.16-.21-.23-.38-.23-.5,0-.18.21-.39.62-.64l3.22-2.05c.35-.19.6-.29.73-.29.12,0,.29.12.53.35,4.49,5.39,9.62,9.24,15.38,11.54Z" style="fill:#ffffff;"/><path d="m396.53,69.84c-.78,1.13-1.32,2.71-1.61,4.75-.16,1-.35,1.57-.59,1.73-.18.14-.72.21-1.64.23-7.05.45-14.15.67-21.3.67s-11.87-.56-14.09-1.67c-2.73-1.33-4.76-3.15-6.06-5.48-.33.31-2.24,2.1-5.71,5.36-.59.53-.99.92-1.2,1.17-.23.41-.52.62-.85.62-.29,0-.58-.26-.85-.79-.63-1.17-1.44-3.05-2.43-5.62,1.23-.6,2.38-1.25,3.46-1.93,1.45-.9,2.99-2.14,4.63-3.72v-13.39h-2.52l-4.19.15c-.35,0-.57-.05-.64-.15-.06-.08-.09-.27-.09-.59v-4.57c0-.31.05-.5.15-.56.08-.06.27-.09.59-.09l4.19.12h3.49l4.31-.12c.33,0,.53.04.59.12.06.08.09.25.09.53l-.12,5.71v12.77c1.23,2.38,2.93,4.04,5.1,4.98,2.05.84,5.81,1.26,11.28,1.26,9.08,0,17.76-.5,26.04-1.49Zm-49.63-44.21c2.75,2.52,5.21,5.46,7.38,8.82.16.23.23.4.23.5,0,.16-.2.39-.59.7l-3.37,2.58c-.41.27-.66.41-.76.41-.14,0-.3-.16-.5-.47-2.15-3.67-4.54-6.8-7.18-9.38-.22-.18-.32-.32-.32-.44,0-.16.19-.35.56-.59l3.22-2.2c.33-.21.58-.32.73-.32s.35.13.59.38Zm33.84,37.62c1.45.12,2.71.18,3.78.18s1.61-.59,1.61-1.76v-2.87h-8.61v1.61l.12,6.97c0,.33-.03.53-.1.6-.07.07-.24.1-.51.1h-4.42c-.33,0-.53-.04-.59-.12-.06-.08-.09-.27-.09-.59l.12-6.97v-1.61h-7.79v2.29l.12,7.06c0,.31-.03.5-.1.57-.07.07-.25.1-.54.1h-4.39c-.33,0-.54-.04-.62-.12-.06-.08-.09-.26-.09-.56l.12-7v-16.88l-.12-7.15c0-.31.04-.5.12-.56.08-.06.27-.09.59-.09l8,.12h3.22c-1.07-.88-2.79-2.04-5.16-3.49-.23-.18-.35-.33-.35-.47s.16-.33.47-.59l2.96-1.99h-2.23l-7.85.12c-.45,0-.67-.19-.67-.59v-4.01c0-.35.04-.57.12-.64.08-.06.26-.09.56-.09l7.85.12h17.81c.72,0,1.24-.06,1.55-.18.37-.16.67-.23.91-.23.37,0,1.19.58,2.46,1.73,1.23,1.19,1.85,2.05,1.85,2.58s-.34.91-1.03,1.14c-.59.18-1.35.67-2.29,1.49-2.07,1.8-4.25,3.5-6.53,5.1h2.23l8.09-.12c.31,0,.51.04.59.12.06.08.09.25.09.53l-.12,7.71v9.23l.12,8.53c0,2.27-.5,3.85-1.49,4.75-1.13.92-3.17,1.4-6.12,1.44-.92,0-1.46-.07-1.64-.21-.12-.12-.25-.51-.41-1.17-.39-2.03-.91-3.41-1.55-4.13Zm-16.49-17.78h7.79v-4.25h-7.79v4.25Zm0,8.76h7.79v-4.25h-7.79v4.25Zm17.4-24.17h-12.04c2.03,1.35,4.04,2.93,6.04,4.75,2.15-1.48,4.15-3.07,6.01-4.75Zm4.48,11.16h-8.61v4.25h8.61v-4.25Zm-8.61,13.01h8.61v-4.25h-8.61v4.25Z" style="fill:#ffffff;"/><path d="m421.25,50.92l-7.71.12c-.39,0-.59-.21-.59-.64v-4.34c0-.43.2-.64.59-.64l7.71.12h8.7c.84-2.15,1.57-4.43,2.2-6.86.21-.74.38-1.74.5-2.99,2.21.41,3.95.81,5.21,1.2.61.2.91.46.91.79,0,.31-.16.63-.47.94-.29.29-.56.76-.79,1.41-.59,1.86-1.27,3.69-2.05,5.51l6.77-.12c.33,0,.53.04.59.12.06.08.09.25.09.53v4.34c0,.31-.04.5-.12.56s-.26.09-.56.09l-7.62-.12h-13.36Zm1.05-16.11l-7.35.12c-.33,0-.53-.04-.59-.12-.06-.08-.09-.25-.09-.53v-4.22c0-.33.04-.54.12-.62.08-.06.26-.09.56-.09l7.35.12h2.72v-1.08c0-2.23-.13-3.89-.38-4.98,1.27.04,3.29.18,6.06.41.64.08.97.26.97.56,0,.23-.14.63-.41,1.2-.18.37-.26,1.33-.26,2.87v1.03h3.08l7.32-.12c.31,0,.5.04.56.12.06.08.09.27.09.59v4.22c0,.31-.04.5-.12.56s-.25.09-.53.09l-7.32-.12h-11.78Zm-.44,42.89h-4.63c-.45,0-.67-.21-.67-.62l.12-10.11v-4.34l-.12-6.71c0-.31.04-.5.12-.56s.26-.09.56-.09l6.65.12h8.64l6.65-.12c.35,0,.57.04.64.12.06.08.09.25.09.53l-.12,5.89v4.95l.12,10.08c0,.35-.05.57-.15.64-.08.06-.27.09-.59.09h-4.6c-.33,0-.53-.05-.59-.15-.06-.08-.09-.27-.09-.59v-2.75h-11.4v2.99c0,.41-.21.62-.64.62Zm-3.57-40.2c-.08-.19-.12-.34-.12-.44,0-.16.26-.31.79-.47l3.28-.88c.25-.06.44-.09.56-.09.23,0,.43.19.59.56.9,2.3,1.54,4.5,1.93,6.59.02.16.03.27.03.35,0,.2-.25.38-.76.56l-3.54,1.03c-.27.08-.47.12-.59.12-.23,0-.39-.24-.47-.73-.43-2.64-1-4.83-1.7-6.59Zm4.22,23.12v8.2h11.4v-8.2h-11.4Zm30.09,4.25h.62c5.16,0,7.73-1.64,7.73-4.92,0-2.11-.58-4.08-1.73-5.92-1.13-1.82-3.13-4.04-6.01-6.68,2.29-4.76,4.35-10.01,6.18-15.73h-8.41v33.6l.12,12.54c0,.31-.04.5-.12.56-.08.06-.25.09-.53.09h-4.83c-.33,0-.54-.04-.62-.12-.06-.08-.09-.25-.09-.53l.12-12.48v-25.93l-.12-12.63c0-.33.05-.53.15-.59.08-.06.27-.09.59-.09l5.33.12h9.61c.74,0,1.24-.06,1.49-.18.37-.12.67-.18.91-.18.47,0,1.31.61,2.52,1.82.96,1.09,1.44,1.9,1.44,2.43,0,.37-.19.73-.56,1.08-.35.25-.77,1-1.26,2.23-1.8,4.77-3.61,9.1-5.45,13.01,3.07,2.77,5.12,5.33,6.15,7.68.78,1.78,1.17,3.9,1.17,6.36,0,6.15-3.53,9.56-10.58,10.22-.51.04-.84.06-1,.06-.43,0-.71-.14-.85-.41-.08-.19-.18-.68-.29-1.46-.29-1.68-.86-3-1.7-3.96Z" style="fill:#ffffff;"/><path d="m507.78,23.41c2.68.06,4.89.2,6.65.41.68.08,1.03.32,1.03.73s-.1.79-.29,1.2c-.33.76-.5,2.37-.5,4.83v4.51h11.63l8.14-.12c.33,0,.53.04.59.12.06.08.09.26.09.56l-.12,7.44v6.94l.12,11.72c0,.29-.03.48-.1.56-.07.08-.25.12-.54.12h-5.1c-.33,0-.53-.05-.59-.15-.06-.06-.09-.23-.09-.53v-2.52h-14.03v7.38l.12,11.1c0,.31-.04.5-.12.56s-.25.09-.53.09h-5.36c-.31,0-.5-.04-.56-.12s-.09-.25-.09-.53l.12-10.99v-7.5h-13.27v2.75c0,.35-.04.57-.12.64-.08.06-.26.09-.56.09h-5.1c-.31,0-.5-.05-.56-.15-.06-.08-.09-.27-.09-.59l.12-11.75v-6.18l-.12-8.41c0-.33.04-.53.12-.59s.26-.09.56-.09l8.14.12h10.87v-4.01c0-3.2-.16-5.76-.47-7.68Zm-12.8,17.52v12.48h13.27v-12.48h-13.27Zm33.72,0h-14.03v12.48h14.03v-12.48Z" style="fill:#ffffff;"/><path d="m564.4,57.01l-7.24.12c-.33,0-.53-.05-.59-.15-.06-.08-.09-.27-.09-.59v-4.51c0-.31.04-.5.12-.56s.26-.09.56-.09l6.65.12v-10.66l-.12-6.12c0-.33.04-.53.12-.59.08-.06.25-.09.53-.09l8.35.12h7.79v-2.46c0-3.18-.14-5.82-.41-7.91,2.23.12,4.37.31,6.42.59.72.06,1.08.32,1.08.79,0,.27-.17.77-.5,1.49-.2.61-.29,2.29-.29,5.04v2.46h8.23l8.32-.12c.31,0,.51.04.59.12.06.08.09.26.09.56l-.12,6.06v10.72l6.65-.12c.41,0,.62.22.62.64v4.51c0,.33-.03.54-.1.62-.07.08-.24.12-.51.12l-7.32-.12h-14.33c2.48,4.02,5.79,7.28,9.93,9.76,3.38,2.03,7.57,3.7,12.57,5.01-1.27,1.58-2.21,3.12-2.81,4.63-.45,1.04-.83,1.55-1.14,1.55-.27,0-.73-.12-1.38-.35-10.78-3.98-18.18-9.91-22.21-17.78-3.36,8.01-10.64,13.99-21.86,17.96-.64.23-1.08.35-1.32.35-.35,0-.75-.5-1.2-1.49-.82-1.72-1.78-3.18-2.87-4.39,11.31-2.79,18.49-7.87,21.53-15.23h-13.74Zm16.08-17.34h-10.37v11.69h9.55c.49-2.83.76-6.73.82-11.69Zm5.54,11.69h11.51v-11.69h-10.75c-.06,4.71-.31,8.6-.76,11.69Z" style="fill:#ffffff;"/><path d="m628.66,38.82c4.43-3.59,7.87-7.91,10.31-12.95.55-1.09.93-2.1,1.14-3.02,1.93.31,3.77.73,5.51,1.26.57.22.85.48.85.79,0,.27-.2.54-.59.79-.41.23-.73.59-.97,1.05-.12.27-.29.62-.53,1.03-.21.43-.36.71-.44.85h27.25l8.29-.12c.31,0,.5.04.56.12.06.08.09.25.09.53v4.34c0,.31-.04.5-.12.56s-.25.09-.53.09l-8.29-.12h-30.53c-1.8,2.66-3.78,5.04-5.95,7.15-.72.61-1.18.91-1.38.91-.21,0-.69-.34-1.44-1.03-1.15-1.09-2.24-1.83-3.25-2.23Zm11.28,23.64l-8.23.12c-.39,0-.59-.22-.59-.67v-3.72c0-.33.04-.54.12-.62.06-.06.21-.09.47-.09l8.23.12h7.32v-2.52c0-2.15-.17-4.13-.5-5.95,2.66.1,4.76.26,6.3.5.57.06.85.25.85.59,0,.29-.18.69-.53,1.2-.2.27-.29,1.48-.29,3.6v2.58h5.39l8.47-.12c.27,0,.44.05.5.15.06.08.09.26.09.56v3.72c0,.45-.2.67-.59.67l-8.47-.12h-1.82c3.55,3.38,7.92,6.05,13.1,8.03-1.27,1.46-2.17,2.67-2.7,3.6-.59.92-1.01,1.38-1.26,1.38-.18,0-.63-.21-1.38-.64-4.61-2.87-8.46-6.21-11.54-10.02.04,2.89.1,5.91.18,9.05.06,2.34.09,3.6.09,3.78,0,.31-.04.51-.12.59-.08.06-.26.09-.56.09h-4.57c-.31,0-.5-.05-.56-.15-.06-.06-.09-.23-.09-.53,0-.02.04-1.53.12-4.54.06-2.71.1-5.42.12-8.12-3.2,4.38-7.32,7.95-12.36,10.72-.74.45-1.24.67-1.49.67-.27,0-.69-.46-1.26-1.38-.9-1.37-1.82-2.47-2.75-3.31,5.66-1.95,10.36-5.03,14.09-9.23h-3.78Zm29.03-14.53h-27.36l-8.2.12c-.35,0-.57-.04-.64-.12-.06-.06-.09-.21-.09-.47v-4.01c0-.35.05-.57.15-.64.08-.06.27-.09.59-.09l8.2.12h24.79l8.2-.12c.49,0,.73.26.73.79-.12,1.92-.18,3.75-.18,5.51,0,1.04.02,2.01.06,2.93.16,6.52.48,11.06.97,13.59.37,1.84.72,3.08,1.05,3.72s.76.97,1.29.97c.64,0,1.2-2.57,1.67-7.71.74,1.04,1.88,2.01,3.43,2.93.61.33.91.69.91,1.08,0,.1-.03.44-.09,1.03-.61,6.43-2.71,9.64-6.3,9.64s-6.17-3.15-7.68-9.46c-1-4.34-1.49-10.94-1.49-19.8Zm-27.95,1.82c1.07,1.25,2.09,2.76,3.05,4.54.14.23.21.42.21.56,0,.22-.19.39-.56.53l-3.37,1.52c-.39.18-.63.26-.73.26-.16,0-.31-.15-.47-.44-.98-1.93-1.95-3.48-2.93-4.63-.16-.21-.23-.38-.23-.5,0-.18.21-.35.64-.53l3.19-1.49c.31-.14.53-.21.64-.21.14,0,.32.13.56.38Zm8.29-9.14l-7.82.12c-.31,0-.5-.04-.56-.12-.06-.08-.09-.25-.09-.53v-3.19c0-.33.04-.54.12-.62.08-.06.25-.09.53-.09l7.82.12h14.91l7.76-.12c.33,0,.54.05.62.15.06.08.09.26.09.56v3.19c0,.31-.04.5-.12.56s-.27.09-.59.09l-7.76-.12h-14.91Zm6.09,15.09c1.04-1.48,1.82-2.74,2.34-3.78.47-1.01.77-1.88.91-2.58,1.56.33,3.22.83,4.98,1.49.53.2.79.43.79.7,0,.23-.14.46-.41.67-.39.25-.79.73-1.2,1.44-.59.86-1.29,1.83-2.11,2.9-.23.31-.54.47-.91.47-.25,0-.58-.08-.97-.23-1.27-.57-2.41-.93-3.43-1.08Z" style="fill:#ffffff;"/><path d="m700.37,71.84c10.98-2.11,20.02-5.85,27.13-11.22-.1-.33-.38-1.09-.85-2.29-6.35,3.97-13.22,6.9-20.62,8.82-.7.18-1.16.26-1.38.26-.37,0-.73-.39-1.08-1.17-.68-1.45-1.41-2.59-2.17-3.43,5.45-1.13,9.87-2.31,13.27-3.54,3.65-1.31,6.92-2.92,9.81-4.83l-1.2-1.67c-5.21,2.42-10.75,4.34-16.61,5.74-.7.18-1.16.26-1.38.26-.37,0-.73-.41-1.08-1.23-.55-1.27-1.25-2.38-2.11-3.34,7.05-1.01,13.33-2.8,18.84-5.36h-4.01l-8.5.15c-.33,0-.53-.05-.59-.15-.06-.08-.09-.27-.09-.59l.12-4.01v-4.01c-.14.08-.62.34-1.44.79-.53.29-.97.53-1.32.7-.64.31-1.06.47-1.26.47-.33,0-.69-.48-1.08-1.44-.49-1.21-1.17-2.29-2.05-3.22,6.33-2.71,11.51-6.48,15.56-11.31.84-1,1.57-2.14,2.2-3.43.92.16,1.98.36,3.19.62,1.52.33,2.36.51,2.52.53.57.14.85.4.85.79,0,.33-.28.66-.85.97-.02.02-.52.58-1.49,1.67h10.08c.62,0,1.08-.06,1.38-.18.37-.16.67-.23.91-.23.39,0,1.05.42,1.99,1.26,1.11,1.02,1.67,1.72,1.67,2.11,0,.35-.22.66-.67.91-.49.27-1.01.77-1.55,1.49-1.41,1.6-2.32,2.62-2.75,3.05h7.24l8.47-.12c.35,0,.57.04.64.12.06.08.09.26.09.56l-.12,4.07v3.96l.12,3.9c0,.35-.05.57-.15.64-.08.06-.27.09-.59.09l-8.47-.15h-3.52c.86,3.18,1.82,5.81,2.87,7.88,1.52-1.29,2.56-2.24,3.11-2.84,1-.94,1.76-1.88,2.29-2.81,2.09,1.11,3.71,2.05,4.86,2.81.61.43.91.83.91,1.2,0,.41-.28.71-.85.91-.82.27-1.54.69-2.17,1.26-1.72,1.5-3.44,2.86-5.16,4.07,3.03,3.81,7.21,6.9,12.54,9.26-1.5,1.64-2.5,2.98-2.99,4.01-.47,1-.83,1.49-1.08,1.49s-.69-.2-1.32-.59c-5.27-3.34-9.41-7.3-12.42-11.89-2.54-3.93-4.62-8.85-6.24-14.77h-1.03l-2.99,1.7c4.39,5.12,6.59,11.02,6.59,17.7,0,3.98-.8,6.73-2.4,8.23-1.43,1.35-3.78,2.02-7.06,2.02h-2.64c-.84-.04-1.34-.14-1.49-.29-.14-.14-.26-.54-.38-1.2-.29-1.68-.79-3.11-1.49-4.28,1.86.2,3.75.29,5.68.29,1.64,0,2.71-.41,3.22-1.23.45-.74.67-2.17.67-4.28,0-.72-.02-1.26-.06-1.61-6.54,4.65-14.24,8.2-23.09,10.66-.72.2-1.19.29-1.41.29-.35,0-.7-.38-1.05-1.14-.74-1.66-1.58-2.95-2.52-3.87Zm13.45-27.3h11.81v-4.31h-11.81v4.31Zm.47-8.76h12.25c1.15-1.15,2.28-2.45,3.37-3.9h-11.28c-1.23,1.27-2.68,2.57-4.34,3.9Zm29.77,8.76v-4.31h-12.54v4.31h12.54Z" style="fill:#ffffff;"/><path d="m772.14,60.85c8.91-1.76,16.9-4.18,23.99-7.27h-14.77l-7.5.12c-.31,0-.5-.04-.56-.12-.06-.08-.09-.26-.09-.56v-3.54c0-.39.21-.59.64-.59l7.5.12h12.71v-3.46h-5.68l-7.73.12c-.33,0-.53-.04-.59-.12-.06-.08-.09-.26-.09-.56v-3.28c0-.33.04-.53.12-.59s.26-.09.56-.09l7.73.12h5.68v-3.19h-9.11l-8.09.12c-.35,0-.57-.04-.64-.12-.06-.08-.09-.26-.09-.56l.12-3.81v-3.49l-.12-3.9c0-.31.04-.5.12-.56.1-.06.3-.09.62-.09l8.09.12h29.82l8.2-.12c.33,0,.53.04.59.12.06.08.09.25.09.53l-.12,3.9v3.49l.12,3.81c0,.33-.04.53-.12.59s-.26.09-.56.09l-8.2-.12h-14.71v3.19h2.46l7.68-.12c.35,0,.57.04.64.12.06.08.09.26.09.56v3.28c0,.18-.02.3-.06.38,1.35-.96,2.65-1.96,3.9-3.02,1.5-1.23,2.74-2.6,3.72-4.1,2.27,1.31,3.76,2.24,4.48,2.78.57.39.85.75.85,1.08,0,.43-.28.71-.85.85-.62.14-1.46.62-2.52,1.44-2.17,1.78-4.29,3.31-6.36,4.6h4.57l7.5-.12c.39,0,.59.2.59.59v3.54c0,.45-.2.67-.59.67l-7.5-.12h-12.48c-2.64,1.37-4.98,2.47-7.03,3.31h11.95l7.79-.12c.33,0,.53.04.59.12.06.08.09.26.09.56l-.12,6.47v4.6l.12,8.99c0,.35-.04.56-.12.62-.08.08-.26.12-.56.12h-4.63c-.33,0-.54-.05-.62-.15-.06-.08-.09-.27-.09-.59v-1.38h-21.47v1.79c0,.33-.05.53-.15.59-.08.06-.27.09-.59.09h-4.48c-.35,0-.57-.04-.64-.12-.06-.08-.09-.26-.09-.56l.12-9.11v-6.12c-2.66.94-5.65,1.87-8.99,2.78-.68.18-1.13.26-1.35.26-.39,0-.86-.51-1.41-1.52-.62-1.19-1.43-2.31-2.4-3.37Zm10.2-27.01h7.73v-3.9h-7.73v3.9Zm31.26,27.3h-21.47v3.19h21.47v-3.19Zm-21.47,10.69h21.47v-3.43h-21.47v3.43Zm11.51-38v-3.9h-7.79v3.9h7.79Zm6.59,11.84l-7.68-.12h-2.46v3.46h5.16c2.05-1.19,3.81-2.3,5.27-3.34h-.29Zm7.27-11.84v-3.9h-8.03v3.9h8.03Z" style="fill:#ffffff;"/><path d="m289.62,125.99c-2.11,1.09-4.73,1.64-7.87,1.64-4.06,0-7.32-1.28-9.77-3.85-2.45-2.56-3.67-5.93-3.67-10.1,0-4.48,1.38-8.1,4.13-10.86,2.75-2.76,6.23-4.14,10.44-4.14,2.71,0,4.95.38,6.74,1.15v4.61c-1.89-1.12-3.97-1.68-6.25-1.68-3.03,0-5.49.97-7.37,2.91-1.88,1.94-2.82,4.53-2.82,7.77s.88,5.54,2.64,7.37c1.76,1.83,4.07,2.74,6.93,2.74,2.64,0,4.93-.62,6.88-1.88v4.3Z" style="fill:#ffffff;"/><path d="m310.88,118.39h-13.63c.05,1.85.62,3.27,1.71,4.28,1.09,1,2.58,1.5,4.48,1.5,2.14,0,4.09-.64,5.88-1.91v3.65c-1.82,1.15-4.23,1.72-7.23,1.72s-5.25-.91-6.92-2.72c-1.67-1.82-2.51-4.37-2.51-7.67,0-3.11.92-5.65,2.76-7.61,1.84-1.96,4.13-2.94,6.87-2.94s4.85.88,6.35,2.64c1.5,1.76,2.25,4.2,2.25,7.32v1.74Zm-4.38-3.2c-.01-1.63-.4-2.89-1.15-3.8-.76-.9-1.8-1.36-3.12-1.36s-2.41.48-3.31,1.43c-.91.95-1.46,2.19-1.67,3.73h9.26Z" style="fill:#ffffff;"/><path d="m332.52,127.16h-4.53v-11.27c0-3.74-1.32-5.61-3.96-5.61-1.38,0-2.52.52-3.42,1.55s-1.35,2.34-1.35,3.92v11.41h-4.55v-20h4.55v3.32h.08c1.5-2.53,3.66-3.79,6.48-3.79,2.17,0,3.83.71,4.98,2.12,1.15,1.41,1.72,3.45,1.72,6.12v12.23Z" style="fill:#ffffff;"/><path d="m348.12,126.94c-.89.44-2.05.66-3.5.66-3.88,0-5.82-1.86-5.82-5.59v-11.31h-3.34v-3.55h3.34v-4.63l4.53-1.29v5.92h4.79v3.55h-4.79v10c0,1.19.21,2.03.64,2.54s1.15.76,2.15.76c.77,0,1.43-.22,1.99-.66v3.59Z" style="fill:#ffffff;"/><path d="m363.15,111.47c-.55-.43-1.33-.64-2.36-.64-1.34,0-2.46.61-3.36,1.82s-1.35,2.86-1.35,4.94v9.57h-4.53v-20h4.53v4.12h.08c.44-1.41,1.12-2.5,2.04-3.29.92-.79,1.94-1.18,3.08-1.18.82,0,1.45.12,1.88.37v4.3Z" style="fill:#ffffff;"/><path d="m381.22,127.16h-4.39v-3.12h-.08c-1.38,2.4-3.41,3.59-6.07,3.59-1.97,0-3.51-.53-4.62-1.6-1.11-1.07-1.67-2.48-1.67-4.24,0-3.78,2.17-5.98,6.52-6.6l5.94-.84c0-2.85-1.35-4.28-4.06-4.28-2.38,0-4.53.82-6.45,2.46v-3.96c2.11-1.25,4.54-1.88,7.3-1.88,5.05,0,7.58,2.49,7.58,7.46v13.01Zm-4.38-9.82l-4.2.59c-1.3.17-2.28.49-2.94.95-.66.46-.99,1.27-.99,2.43,0,.85.3,1.54.91,2.08.61.54,1.42.81,2.43.81,1.38,0,2.52-.48,3.43-1.46.9-.97,1.36-2.19,1.36-3.66v-1.74Z" style="fill:#ffffff;"/><path d="m390.82,127.16h-4.55v-29.61h4.55v29.61Z" style="fill:#ffffff;"/><path d="m442.01,99.15l-7.68,28.01h-5.25l-5.33-19.59c-.22-.83-.36-1.74-.41-2.73h-.08c-.07.92-.22,1.82-.47,2.7l-5.35,19.63h-5.37l-7.83-28.01h5.1l5.08,20.51c.21.86.34,1.76.39,2.7h.1c.05-.66.23-1.56.55-2.7l5.74-20.51h4.78l5.31,20.66c.18.7.32,1.54.41,2.5h.08c.04-.65.19-1.51.45-2.58l4.98-20.59h4.8Z" style="fill:#ffffff;"/><path d="m461.84,118.39h-13.63c.05,1.85.62,3.27,1.71,4.28,1.09,1,2.58,1.5,4.48,1.5,2.14,0,4.09-.64,5.88-1.91v3.65c-1.82,1.15-4.23,1.72-7.23,1.72s-5.25-.91-6.92-2.72-2.51-4.37-2.51-7.67c0-3.11.92-5.65,2.76-7.61,1.84-1.96,4.13-2.94,6.87-2.94s4.85.88,6.35,2.64,2.25,4.2,2.25,7.32v1.74Zm-4.38-3.2c-.01-1.63-.4-2.89-1.15-3.8-.75-.9-1.8-1.36-3.12-1.36s-2.41.48-3.31,1.43c-.91.95-1.46,2.19-1.67,3.73h9.26Z" style="fill:#ffffff;"/><path d="m481.03,127.16h-4.39v-3.12h-.08c-1.38,2.4-3.41,3.59-6.07,3.59-1.97,0-3.51-.53-4.62-1.6-1.11-1.07-1.67-2.48-1.67-4.24,0-3.78,2.17-5.98,6.52-6.6l5.94-.84c0-2.85-1.35-4.28-4.06-4.28-2.38,0-4.53.82-6.45,2.46v-3.96c2.11-1.25,4.54-1.88,7.3-1.88,5.05,0,7.58,2.49,7.58,7.46v13.01Zm-4.38-9.82l-4.2.59c-1.3.17-2.28.49-2.94.95-.66.46-.99,1.27-.99,2.43,0,.85.3,1.54.91,2.08.61.54,1.42.81,2.43.81,1.38,0,2.52-.48,3.43-1.46.91-.97,1.36-2.19,1.36-3.66v-1.74Z" style="fill:#ffffff;"/><path d="m496.62,126.94c-.89.44-2.05.66-3.5.66-3.88,0-5.82-1.86-5.82-5.59v-11.31h-3.34v-3.55h3.34v-4.63l4.53-1.29v5.92h4.79v3.55h-4.79v10c0,1.19.21,2.03.64,2.54s1.15.76,2.15.76c.77,0,1.43-.22,1.99-.66v3.59Z" style="fill:#ffffff;"/><path d="m517.82,127.16h-4.53v-10.94c0-3.96-1.32-5.94-3.96-5.94-1.33,0-2.45.57-3.36,1.72-.91,1.15-1.37,2.61-1.37,4.39v10.76h-4.55v-29.61h4.55v12.93h.08c1.51-2.53,3.67-3.79,6.48-3.79,4.44,0,6.66,2.71,6.66,8.14v12.32Z" style="fill:#ffffff;"/><path d="m539.78,118.39h-13.63c.05,1.85.62,3.27,1.71,4.28,1.09,1,2.58,1.5,4.48,1.5,2.14,0,4.09-.64,5.88-1.91v3.65c-1.82,1.15-4.23,1.72-7.23,1.72s-5.25-.91-6.92-2.72-2.51-4.37-2.51-7.67c0-3.11.92-5.65,2.76-7.61,1.84-1.96,4.13-2.94,6.87-2.94s4.85.88,6.35,2.64,2.25,4.2,2.25,7.32v1.74Zm-4.38-3.2c-.01-1.63-.4-2.89-1.15-3.8-.75-.9-1.8-1.36-3.12-1.36s-2.41.48-3.31,1.43c-.91.95-1.46,2.19-1.67,3.73h9.26Z" style="fill:#ffffff;"/><path d="m555.22,111.47c-.55-.43-1.33-.64-2.36-.64-1.34,0-2.46.61-3.36,1.82s-1.35,2.86-1.35,4.94v9.57h-4.53v-20h4.53v4.12h.08c.44-1.41,1.12-2.5,2.04-3.29.92-.79,1.94-1.18,3.08-1.18.82,0,1.45.12,1.88.37v4.3Z" style="fill:#ffffff;"/><path d="m591.98,127.16h-5.1l-2.52-7.13h-11.02l-2.42,7.13h-5.08l10.49-28.01h5.23l10.41,28.01Zm-8.85-10.92l-3.89-11.17c-.12-.36-.24-.95-.37-1.76h-.08c-.12.74-.25,1.33-.39,1.76l-3.85,11.17h8.57Z" style="fill:#ffffff;"/><path d="m613.02,127.16h-4.53v-3.4h-.08c-1.46,2.58-3.7,3.87-6.74,3.87-2.46,0-4.43-.9-5.91-2.69-1.48-1.79-2.22-4.23-2.22-7.31,0-3.31.82-5.96,2.45-7.95s3.81-2.99,6.53-2.99,4.66,1.08,5.88,3.24h.08v-12.38h4.53v29.61Zm-4.47-9.14v-2.62c0-1.42-.46-2.62-1.39-3.61-.92-.99-2.1-1.48-3.54-1.48-1.69,0-3.02.63-3.99,1.89-.97,1.26-1.46,3.01-1.46,5.25,0,2.03.47,3.64,1.4,4.81.93,1.18,2.18,1.77,3.76,1.77s2.81-.57,3.77-1.71c.96-1.14,1.45-2.57,1.45-4.31Z" style="fill:#ffffff;"/><path d="m648.36,127.16h-4.53v-10.9c0-2.1-.3-3.61-.89-4.55s-1.59-1.41-3-1.41c-1.18,0-2.19.59-3.02,1.78-.83,1.19-1.24,2.6-1.24,4.26v10.82h-4.55v-11.27c0-3.72-1.32-5.59-3.95-5.59-1.22,0-2.23.56-3.02,1.68-.79,1.12-1.18,2.57-1.18,4.36v10.82h-4.53v-20h4.53v3.16h.08c1.45-2.42,3.55-3.63,6.31-3.63,1.38,0,2.59.38,3.62,1.14s1.74,1.76,2.12,3c1.48-2.76,3.7-4.14,6.64-4.14,4.4,0,6.6,2.71,6.6,8.14v12.32Z" style="fill:#ffffff;"/><path d="m655.69,102.96c-.74,0-1.38-.24-1.9-.72-.53-.48-.79-1.09-.79-1.84s.26-1.36.79-1.86c.53-.49,1.16-.74,1.9-.74s1.42.25,1.95.74c.53.5.8,1.11.8,1.86,0,.7-.27,1.31-.8,1.81-.53.5-1.18.75-1.95.75Zm2.25,24.2h-4.53v-20h4.53v20Z" style="fill:#ffffff;"/><path d="m681.19,127.16h-4.53v-11.27c0-3.74-1.32-5.61-3.96-5.61-1.38,0-2.52.52-3.42,1.55s-1.35,2.34-1.35,3.92v11.41h-4.55v-20h4.55v3.32h.08c1.5-2.53,3.66-3.79,6.48-3.79,2.17,0,3.83.71,4.98,2.12,1.15,1.41,1.72,3.45,1.72,6.12v12.23Z" style="fill:#ffffff;"/><path d="m688.52,102.96c-.74,0-1.38-.24-1.9-.72-.53-.48-.79-1.09-.79-1.84s.26-1.36.79-1.86c.53-.49,1.16-.74,1.9-.74s1.42.25,1.95.74c.53.5.8,1.11.8,1.86,0,.7-.27,1.31-.8,1.81-.53.5-1.18.75-1.95.75Zm2.25,24.2h-4.53v-20h4.53v20Z" style="fill:#ffffff;"/><path d="m694.96,126.53v-4.2c1.69,1.29,3.56,1.93,5.61,1.93,2.73,0,4.1-.81,4.1-2.42,0-.46-.12-.84-.35-1.16-.23-.32-.55-.6-.95-.85-.4-.25-.87-.47-1.41-.66s-1.14-.42-1.81-.66c-.82-.33-1.56-.67-2.22-1.04-.66-.36-1.2-.78-1.64-1.24-.44-.46-.76-.99-.99-1.57s-.33-1.27-.33-2.05c0-.96.23-1.81.68-2.55.46-.74,1.07-1.35,1.84-1.86.77-.5,1.64-.88,2.62-1.13s1.99-.38,3.03-.38c1.85,0,3.5.28,4.96.84v3.96c-1.41-.96-3.02-1.45-4.84-1.45-.57,0-1.09.06-1.55.18s-.86.28-1.18.49c-.33.21-.58.46-.76.75s-.27.62-.27.97c0,.43.09.79.27,1.09.18.3.45.56.81.79.36.23.79.44,1.29.62.5.19,1.08.39,1.73.62.86.35,1.63.71,2.31,1.07.68.36,1.27.78,1.75,1.24.48.46.85,1,1.11,1.6s.39,1.33.39,2.16c0,1.02-.23,1.9-.7,2.66-.47.76-1.09,1.38-1.88,1.88-.78.5-1.68.86-2.71,1.1s-2.1.36-3.23.36c-2.19,0-4.08-.36-5.68-1.09Z" style="fill:#ffffff;"/><path d="m723.52,126.94c-.89.44-2.05.66-3.5.66-3.88,0-5.82-1.86-5.82-5.59v-11.31h-3.34v-3.55h3.34v-4.63l4.53-1.29v5.92h4.79v3.55h-4.79v10c0,1.19.21,2.03.64,2.54s1.15.76,2.15.76c.77,0,1.43-.22,1.99-.66v3.59Z" style="fill:#ffffff;"/><path d="m738.55,111.47c-.55-.43-1.33-.64-2.36-.64-1.34,0-2.46.61-3.36,1.82s-1.35,2.86-1.35,4.94v9.57h-4.53v-20h4.53v4.12h.08c.44-1.41,1.12-2.5,2.04-3.29.92-.79,1.94-1.18,3.08-1.18.82,0,1.45.12,1.88.37v4.3Z" style="fill:#ffffff;"/><path d="m756.62,127.16h-4.39v-3.12h-.08c-1.38,2.4-3.41,3.59-6.07,3.59-1.97,0-3.51-.53-4.62-1.6-1.11-1.07-1.67-2.48-1.67-4.24,0-3.78,2.17-5.98,6.52-6.6l5.94-.84c0-2.85-1.35-4.28-4.06-4.28-2.38,0-4.53.82-6.45,2.46v-3.96c2.11-1.25,4.54-1.88,7.3-1.88,5.05,0,7.58,2.49,7.58,7.46v13.01Zm-4.38-9.82l-4.2.59c-1.3.17-2.28.49-2.94.95-.66.46-.99,1.27-.99,2.43,0,.85.3,1.54.91,2.08.61.54,1.42.81,2.43.81,1.38,0,2.52-.48,3.43-1.46.91-.97,1.36-2.19,1.36-3.66v-1.74Z" style="fill:#ffffff;"/><path d="m772.21,126.94c-.89.44-2.05.66-3.5.66-3.88,0-5.82-1.86-5.82-5.59v-11.31h-3.34v-3.55h3.34v-4.63l4.53-1.29v5.92h4.79v3.55h-4.79v10c0,1.19.21,2.03.64,2.54s1.15.76,2.15.76c.77,0,1.43-.22,1.99-.66v3.59Z" style="fill:#ffffff;"/><path d="m777.93,102.96c-.74,0-1.38-.24-1.9-.72-.53-.48-.79-1.09-.79-1.84s.26-1.36.79-1.86c.53-.49,1.16-.74,1.9-.74s1.42.25,1.95.74c.53.5.8,1.11.8,1.86,0,.7-.27,1.31-.8,1.81-.53.5-1.18.75-1.95.75Zm2.25,24.2h-4.53v-20h4.53v20Z" style="fill:#ffffff;"/><path d="m794.48,127.63c-3.09,0-5.55-.93-7.39-2.8-1.84-1.87-2.76-4.35-2.76-7.43,0-3.36.96-5.98,2.88-7.87,1.92-1.89,4.51-2.83,7.76-2.83s5.56.92,7.3,2.75,2.62,4.38,2.62,7.64-.94,5.75-2.82,7.67c-1.88,1.92-4.41,2.88-7.59,2.88Zm.21-17.32c-1.77,0-3.17.62-4.2,1.86-1.03,1.24-1.54,2.94-1.54,5.12s.52,3.75,1.56,4.95c1.04,1.2,2.43,1.81,4.18,1.81s3.15-.59,4.11-1.78c.96-1.18,1.44-2.87,1.44-5.06s-.48-3.9-1.44-5.1c-.96-1.2-2.33-1.8-4.11-1.8Z" style="fill:#ffffff;"/><path d="m826.83,127.16h-4.53v-11.27c0-3.74-1.32-5.61-3.96-5.61-1.38,0-2.52.52-3.42,1.55s-1.35,2.34-1.35,3.92v11.41h-4.55v-20h4.55v3.32h.08c1.5-2.53,3.66-3.79,6.48-3.79,2.17,0,3.83.71,4.98,2.12,1.15,1.41,1.72,3.45,1.72,6.12v12.23Z" style="fill:#ffffff;"/><path d="m222.12,85.37c-6.69,1.73-11.45.7-19.23-3.13-7.67-3.78-18.1-13.92-26.09-17.59-7.98-3.67-19.64-.65-24.17,1.73-4.53,2.37-12.08,8.42-18.13,10.14-1.47.42-2.87.53-4.21.4h0c-14.79-1.65-15.86-9.93-16.07-15.47-.22-5.61,4.75-9.93,9.49-9.93s7.33,3.76,6.9,6.47c-.33,2.14-4.17,3.96-4.32,5.39-.41,4.96,8.71.75,10.36-.65,3.64-2.42,10.97-16.42-5.61-25.68-16.18-7.55-25.89,6.04-28.48,17.05-2.37,9.93-5.75,22.53-18.34,22.01-15.54-.65-14.24-7.55-28.91-10.14-16.76-2.96-29.99,8.2-29.99,9.49,0,2.25,6.26.22,13.16-1.94,6.69-1.73,11.45-.7,19.23,3.13,7.67,3.78,18.1,13.92,26.09,17.59,7.98,3.67,19.64.65,24.17-1.73,4.53-2.37,12.08-8.42,18.13-10.14,1.47-.42,2.87-.53,4.21-.4h0c14.79,1.65,15.86,9.93,16.07,15.47.22,5.61-4.75,9.93-9.49,9.93s-7.33-3.76-6.9-6.47c.33-2.14,4.17-3.96,4.32-5.39.41-4.96-8.71-.75-10.36.65-3.64,2.42-10.97,16.42,5.61,25.68,16.18,7.55,25.89-6.04,28.48-17.05,2.37-9.93,5.75-22.53,18.34-22.01,15.54.65,14.24,7.55,28.91,10.14,16.76,2.96,29.99-8.2,29.99-9.49,0-2.25-6.26-.22-13.16,1.94Z" style="fill:#384b88;"/><ellipse cx="130.02" cy="78.2" rx="121.99" ry="73.63" style="fill:#ffffff;"/><path d="m221.83,84.11c-6.69,1.73-11.45.7-19.23-3.13-7.67-3.78-18.1-13.92-26.09-17.59-7.98-3.67-19.64-.65-24.17,1.73-4.53,2.37-12.08,8.42-18.13,10.14-1.47.42-2.87.53-4.21.4h0c-14.79-1.65-15.86-9.93-16.07-15.47-.22-5.61,4.75-9.93,9.49-9.93s7.33,3.76,6.9,6.47c-.33,2.14-4.17,3.96-4.32,5.39-.41,4.96,8.71.75,10.36-.65,3.64-2.42,10.97-16.42-5.61-25.68-16.18-7.55-25.89,6.04-28.48,17.05-2.37,9.93-5.75,22.53-18.34,22.01-15.54-.65-14.24-7.55-28.91-10.14-16.76-2.96-29.99,8.2-29.99,9.49,0,2.25,6.26.22,13.16-1.94,6.69-1.73,11.45-.7,19.23,3.13,7.67,3.78,18.1,13.92,26.09,17.59,7.98,3.67,19.64.65,24.17-1.73,4.53-2.37,12.08-8.42,18.13-10.14,1.47-.42,2.87-.53,4.21-.4h0c14.79,1.65,15.86,9.93,16.07,15.47.22,5.61-4.75,9.93-9.49,9.93s-7.33-3.76-6.9-6.47c.33-2.14,4.17-3.96,4.32-5.39.41-4.96-8.71-.75-10.36.65-3.64,2.42-10.97,16.42,5.61,25.68,16.18,7.55,25.89-6.04,28.48-17.05,2.37-9.93,5.75-22.53,18.34-22.01,15.54.65,14.24,7.55,28.91,10.14,16.76,2.96,29.99-8.2,29.99-9.49,0-2.25-6.26-.22-13.16,1.94Z" style="fill:#384b88;"/></svg>